<svg xmlns="http://www.w3.org/2000/svg" viewBox="0 0 1200 900"><defs><filter id="s" x="-30%" y="-30%" width="180%" height="180%"><feDropShadow dx="0" dy="20" stdDeviation="18" flood-opacity=".15"/></filter><linearGradient id="clay" x2="1" y2=".6"><stop stop-color="#c38c6f"/><stop offset=".5" stop-color="#e9bea1"/><stop offset="1" stop-color="#946a55"/></linearGradient></defs><rect width="1200" height="900" fill="#eee6d9"/><text x="65" y="80" font-family="Arial" font-size="16" letter-spacing="4" fill="#635343">OBJECTS / VISUAL DIRECTION</text><rect x="65" y="180" width="525" height="550" fill="#dfd0bd"/><g transform="translate(-108 5) scale(.75)"><ellipse cx="570" cy="686" rx="361" ry="51" fill="#796753" opacity=".12"/><path d="M280 335c-52 68-75 158-42 281 45 39 160 39 203 0 35-123 13-213-41-281Z" fill="url(#clay)"/><ellipse cx="340" cy="335" rx="60" ry="22" fill="#936c54"/><ellipse cx="340" cy="333" rx="48" ry="15" fill="#6b4b39"/><path d="M505 446c-15 43-19 114-1 174 42 39 142 39 181 0 20-61 13-133-5-174Z" fill="#d1b99d"/><ellipse cx="592" cy="446" rx="88" ry="30" fill="#e6d4bf"/><ellipse cx="592" cy="446" rx="73" ry="21" fill="#aa9174"/><path d="M675 310c-37 33-61 78-72 172 61 31 180 31 239 0-11-94-35-139-72-172Z" fill="#7d8d75"/><path d="M675 310v-87h95v87" fill="#7d8d75"/><ellipse cx="722" cy="223" rx="47" ry="14" fill="#54674f"/></g><rect x="635" y="180" width="495" height="255" fill="#be9275"/><ellipse cx="882" cy="295" rx="128" ry="66" fill="#dfb597"/><ellipse cx="882" cy="295" rx="102" ry="46" fill="#936c54"/><rect x="635" y="475" width="495" height="255" fill="#b3bca6"/><path d="M765 695V537h55v158M850 695V537h55v158M935 695V537h55v158" stroke="#819072" stroke-width="20"/><text x="65" y="819" font-family="Arial" font-size="12" letter-spacing="3" fill="#635343">01 / FULL FORM</text><text x="635" y="819" font-family="Arial" font-size="12" letter-spacing="3" fill="#635343">02 / DETAIL — 03 / MATERIAL</text></svg>
